<svg width="120" height="139" viewBox="0 0 120 139" fill="none" xmlns="http://www.w3.org/2000/svg">
<path d="M101.694 108.166H101.65C98.0968 108.14 94.9937 105.045 92.4219 98.9637C92.1046 98.2147 92.4551 97.3476 93.2041 97.0303C93.9568 96.713 94.8202 97.0635 95.1413 97.8125C96.5655 101.178 98.8532 105.196 101.669 105.214H101.694C105.609 105.214 109.742 97.8384 110.882 95.2481C111.21 94.5028 112.081 94.1633 112.826 94.4917C113.572 94.8201 113.911 95.6946 113.583 96.4399C113.052 97.6428 108.225 108.166 101.694 108.166" fill="#133441"/>
<path d="M118.202 94.3258C117.457 94.4807 116.83 94.4807 116.298 94.3922C117.332 93.8203 118.273 92.8646 118.811 91.3333C119.084 90.5622 118.675 89.7098 117.904 89.4294C117.132 89.149 116.284 89.5475 116.014 90.3187C115.288 92.3886 113.251 92.2041 112.86 92.1488H112.834L112.815 92.1414C112.402 92.0898 111.86 91.9532 111.624 91.6285C111.391 91.3075 111.461 90.8279 111.469 90.7873C111.638 90.0013 111.14 89.2117 110.351 89.0199C109.554 88.828 108.76 89.315 108.576 90.112C108.535 90.2891 108.207 91.8831 109.188 93.2926C109.55 93.8129 110.185 94.4365 111.273 94.8128C111.93 98.9749 114.9 100.514 116.498 100.739C116.564 100.75 116.634 100.753 116.701 100.753C117.428 100.761 118.062 100.222 118.162 99.4804C118.265 98.6686 117.693 97.9159 116.881 97.8015C116.87 97.7979 116.383 97.7204 115.819 97.3182C116.184 97.3809 116.572 97.4215 116.985 97.4252C117.553 97.4289 118.169 97.3735 118.833 97.2333C119.634 97.0673 120.14 96.2814 119.966 95.4807C119.789 94.6763 118.999 94.1634 118.202 94.3258" fill="#133441"/>
<path d="M73.4266 138.651C73.3934 138.651 73.3602 138.647 73.327 138.647C70.8253 138.481 69.545 137.526 69.4085 137.419C68.9768 137.079 68.7664 136.526 68.8697 135.987L72.5485 116.239C72.6997 115.435 73.4672 114.907 74.2716 115.059C75.0722 115.206 75.5999 115.977 75.4523 116.778L71.9765 135.423C72.3455 135.541 72.8584 135.659 73.5226 135.703C74.338 135.755 74.9505 136.459 74.8988 137.271C74.8472 138.053 74.1977 138.651 73.4266 138.651" fill="#133441"/>
<path d="M37.8613 138.651C37.0901 138.651 36.4407 138.053 36.389 137.271C36.3374 136.459 36.9498 135.755 37.7653 135.703C38.7541 135.637 39.4073 135.412 39.7615 135.249L45.8128 118.398C46.0895 117.63 46.9344 117.228 47.7019 117.505C48.4694 117.782 48.8679 118.627 48.5911 119.394L42.3591 136.755C42.2631 137.017 42.0971 137.245 41.8794 137.419C41.7429 137.526 40.4625 138.481 37.9609 138.647C37.9277 138.651 37.8945 138.651 37.8613 138.651" fill="#133441"/>
<path d="M7.57145 108.782C6.81135 108.782 6.16192 108.196 6.10288 107.424C6.03647 106.609 6.64164 105.901 7.45708 105.834C10.2576 105.609 19.9322 99.0818 25.371 95.0156C26.0241 94.5286 26.9502 94.6614 27.4373 95.3145C27.9243 95.9676 27.7914 96.8938 27.1383 97.3808C24.6736 99.222 12.1578 108.421 7.68949 108.779C7.6489 108.779 7.61203 108.782 7.57145 108.782" fill="#133441"/>
<path d="M5.12869 110.878C4.55677 110.878 4.0144 110.546 3.77456 109.989C3.56794 109.52 3.62697 109 3.88526 108.602C1.74518 108.185 0.678864 107.336 0.520203 107.199C-0.099681 106.672 -0.177224 105.742 0.350415 105.118C0.874365 104.506 1.78945 104.425 2.41302 104.934C2.51264 105.011 4.02181 106.111 7.47545 105.834C8.03999 105.786 8.58236 106.07 8.86647 106.561C9.15427 107.048 9.13579 107.657 8.81847 108.129C8.69671 108.314 7.55658 109.952 5.71538 110.753C5.52351 110.838 5.32425 110.878 5.12869 110.878" fill="#133441"/>
<path d="M100.281 80.8137C100.281 102.827 82.4372 120.671 60.4276 120.671C38.418 120.671 20.5742 102.827 20.5742 80.8137C20.5742 46.0153 60.4276 -2.41248e-05 60.4276 -2.41248e-05C60.4276 -2.41248e-05 100.281 46.0153 100.281 80.8137Z" fill="#6949FF"/>
<path d="M60.0847 117.852C44.3699 117.852 31.6328 108.074 31.6328 96.0119C31.6328 83.95 44.3699 74.1721 60.0847 74.1721C75.7995 74.1721 88.5367 83.95 88.5367 96.0119C88.5367 108.074 75.7995 117.852 60.0847 117.852" fill="#673AB3"/>
<path d="M57.2839 13.5195C57.2433 13.18 56.8116 12.966 56.509 13.0472C54.6678 13.5342 53.4392 16.0138 52.4024 17.486C51.0113 19.4563 49.6977 21.4599 48.4432 23.5225C47.196 25.574 45.9674 27.644 44.8235 29.7582C43.8531 31.5515 41.8828 34.0679 42.0673 36.16C42.1521 37.1599 43.1631 38.0898 44.1889 37.4625C46.0596 36.315 46.8603 33.555 47.8749 31.6658C49.0114 29.5442 50.1442 27.4226 51.3286 25.3268C52.5131 23.231 53.7012 21.1352 54.893 19.0468C55.8191 17.4233 57.52 15.4603 57.2839 13.5195Z" fill="white"/>
<path d="M40.9163 40.263C39.8979 39.9493 39.0345 40.5581 38.6507 41.4621C38.433 41.975 38.2154 42.4842 37.9977 42.9934C37.6324 43.6354 37.3335 44.318 37.1269 45.0449C36.8612 45.9637 37.3704 46.971 38.2929 47.2551C39.3039 47.565 40.1046 46.9599 40.5031 46.0891C41.0418 44.901 41.5767 43.7166 42.1155 42.5322C42.5213 41.6392 41.7686 40.5249 40.9163 40.263Z" fill="white"/>
<path d="M27.0165 87.2893C27.2711 93.2004 32.2781 97.7831 38.1929 97.5248C44.1113 97.2702 48.7013 92.2742 48.443 86.3632C48.1885 80.4558 43.1814 75.8731 37.2667 76.1277C31.3483 76.386 26.7582 81.382 27.0165 87.2893Z" fill="white"/>
<path d="M42.5028 90.9754C41.8423 91.7281 40.8018 91.8905 40.1782 91.3444C39.5547 90.7946 39.5842 89.743 40.2447 88.994C40.9052 88.2413 41.9493 88.0789 42.5729 88.625C43.1965 89.1748 43.1633 90.2264 42.5028 90.9754V90.9754ZM36.8205 86.0717C35.6767 87.3668 33.8761 87.6509 32.7987 86.7027C31.7213 85.7581 31.773 83.939 32.9168 82.6402C34.0569 81.3451 35.8575 81.061 36.9349 82.0056C38.0123 82.9538 37.9607 84.7729 36.8205 86.0717V86.0717ZM45.1041 86.5071C44.927 82.4373 41.4771 79.2825 37.4035 79.4596C33.3263 79.633 30.1679 83.0756 30.3413 87.1454C30.5184 91.2153 33.9646 94.3737 38.0418 94.1966C42.1191 94.0195 45.2775 90.5769 45.1041 86.5071" fill="#133441"/>
<path d="M73.1461 87.2893C73.4007 93.2004 78.4078 97.7831 84.3225 97.5248C90.2409 97.2702 94.831 92.2742 94.5728 86.3632C94.3182 80.4558 89.3111 75.8731 83.3964 76.1277C77.478 76.386 72.8878 81.382 73.1461 87.2893Z" fill="white"/>
<path d="M89.1304 90.7098C88.4663 91.4588 87.4257 91.6248 86.8021 91.0787C86.1785 90.529 86.2081 89.4774 86.8686 88.7247C87.5327 87.9756 88.5732 87.8096 89.1968 88.3594C89.8204 88.9055 89.7909 89.9607 89.1304 90.7098V90.7098ZM83.0496 85.64C81.7508 86.7801 79.9317 86.8392 78.9798 85.7618C78.0278 84.688 78.3119 82.8911 79.607 81.7473C80.9021 80.6034 82.7249 80.5481 83.6769 81.6218C84.6252 82.6956 84.3447 84.4962 83.0496 85.64ZM91.2299 86.5071C91.0564 82.4373 87.6065 79.2825 83.533 79.4596C79.4558 79.633 76.2936 83.0756 76.4707 87.1454C76.6478 91.2153 80.0978 94.3737 84.1713 94.1966C88.2486 94.0195 91.407 90.5769 91.2299 86.5071" fill="#133441"/>
<path d="M76.0611 66.656C75.8139 68.5378 79.1163 69.6374 82.8171 70.0469C86.1342 70.4159 89.3296 71.069 90.0934 68.6633C91.6579 63.7189 76.8139 60.9959 76.0611 66.656Z" fill="#133441"/>
<path d="M31.4851 68.619C32.2305 71.0248 35.4332 70.3938 38.7503 70.0507C42.4549 69.667 45.7646 68.5858 45.5284 66.7041C44.8163 61.0402 29.9539 63.6637 31.4851 68.619" fill="#133441"/>
<path d="M95.3919 100.362C95.3919 101.739 93.3035 102.853 90.7317 102.853C88.1599 102.853 86.0752 101.739 86.0752 100.362C86.0752 98.986 88.1599 97.8717 90.7317 97.8717C93.3035 97.8717 95.3919 98.986 95.3919 100.362Z" fill="#A592FF"/>
<path d="M34.6028 100.362C34.6028 101.739 32.5144 102.853 29.9426 102.853C27.3708 102.853 25.2861 101.739 25.2861 100.362C25.2861 98.986 27.3708 97.8717 29.9426 97.8717C32.5144 97.8717 34.6028 98.986 34.6028 100.362Z" fill="#A592FF"/>
<path d="M55.4906 93.8903C56.151 96.499 59.1066 97.6908 61.5787 97.8237C63.6007 97.9344 68.6594 96.82 68.2978 93.9531C68.2351 93.4697 67.8034 92.931 67.2389 93.145C66.2684 93.5103 65.8921 94.4438 65.0176 94.9899C64.0546 95.5876 62.896 95.8017 61.778 95.7906C59.756 95.7648 57.6049 95.0342 56.3097 93.4107C55.9887 93.0085 55.3799 93.4513 55.4906 93.8903" fill="#133441"/>
</svg>
