<svg width="340" height="154" viewBox="0 0 340 154" fill="none" xmlns="http://www.w3.org/2000/svg">
<rect width="339" height="154" rx="16" fill="#002F5B"/>
<path d="M0.307617 46.8475C0.307617 46.8475 53.8713 76.2737 91.3769 75.0811C146.337 73.3337 175.678 13.4152 230.213 20.3785C277.944 26.473 338.692 78.1692 338.692 78.1692" stroke="white" stroke-opacity="0.2"/>
<path d="M0.307617 93.731C0.307617 93.731 53.8713 123.157 91.3769 121.965C146.337 120.217 185.053 47.8249 239.588 54.7882C287.319 60.8827 338.692 89.639 338.692 89.639" stroke="white" stroke-opacity="0.2"/>
<path d="M0.307617 76.0851C0.307617 76.0851 51.6392 100.978 89.1448 99.7856C144.104 98.0381 185.946 32.3848 240.481 39.348C288.211 45.4425 336.907 82.5808 336.907 82.5808" stroke="white" stroke-opacity="0.2"/>
</svg>
