<svg width="375" height="128" viewBox="0 0 375 128" fill="none" xmlns="http://www.w3.org/2000/svg">
<path fill-rule="evenodd" clip-rule="evenodd" d="M411.244 58.4757H390.346V55.1995H411.244V58.4757ZM391.246 77.2396V60.2628H411.244V77.2396H391.246ZM402.945 73.3677H405.745V65.9217H402.945V73.3677ZM399.345 73.3677H402.045V65.9217H399.345V73.3677ZM395.646 73.3677H398.345V65.9217H395.646V73.3677ZM400.545 87.6639H411.644V91.0395H400.545V87.6639ZM395.246 96.4998H411.644V99.8753H395.246V96.4998ZM389.946 105.435H411.644V108.811H389.946V105.435ZM384.447 114.271H411.644V117.646H384.447V114.271ZM405.545 79.1259H411.644V82.1043H405.545V79.1259ZM379.147 123.206H411.644V126.582H379.147V123.206ZM390.046 79.1259L357.25 131.744H354.85L358.05 126.582H346.851V123.206H360.249L363.749 117.746H353.55V114.37H365.949L369.448 108.811H360.149V105.435H371.548L375.148 99.9746H366.849V96.5991H377.248L380.747 91.0395H373.448V87.6639H382.947L386.447 82.1043H380.147V79.1259H389.246H390.046ZM402.745 79.1259L371.748 131.744H368.549L399.445 79.1259H402.745ZM436.041 58.575H415.144V55.1995H436.041V58.575ZM435.142 77.4382H415.144V60.4613H435.142V77.4382ZM422.843 66.1203H420.143V73.5663H422.843V66.1203ZM426.542 66.1203H423.843V73.5663H426.542V66.1203ZM430.242 66.1203H427.542L427.442 73.467H430.242V66.1203ZM425.443 79.2252L456.339 131.843H447.74L448.54 126.78H415.344V123.405H442.341L443.141 117.845H415.344V114.469H437.041L437.841 108.91H415.344V105.534H431.642L432.442 100.074H415.344V96.6984H426.342L427.142 91.1387H415.344V87.7632H421.043L421.843 82.3028H415.344V79.2252H425.443ZM480.037 126.78H465.638L468.838 131.843H466.438L433.642 79.2252H446.84V82.3028H437.241L440.741 87.7632H453.44V91.1387H442.941L446.44 96.6984H460.139V100.074H448.54L452.14 105.534H466.738V108.91H454.24L457.739 114.469H473.338V117.845H459.939L463.439 123.405H480.037V126.78Z" fill="#066AC9" fill-opacity="0.1"/>
<path d="M265.363 69.4957C313.457 69.4957 305.658 67.5101 305.658 67.5101C305.658 67.5101 286.06 64.631 276.461 59.5677C270.462 59.5677 261.063 59.5677 254.364 59.5677C245.865 65.326 225.167 67.5101 225.167 67.5101C225.167 67.5101 216.868 69.4957 265.363 69.4957Z" fill="#066AC9" fill-opacity="0.1"/>
<path fill-rule="evenodd" clip-rule="evenodd" d="M278.56 86.1747V85.5791C278.56 85.4467 278.56 85.3143 278.56 85.1819H282.559V83.8913L280.559 81.9057H276.86L274.76 83.9906V84.0899C274.493 83.7589 274.193 83.3949 273.86 82.9978C273.26 82.2035 272.56 81.31 271.56 80.7143H273.76V79.3244L271.86 77.3388H267.961L265.961 79.3244V79.8208H264.961V79.3244L262.961 77.3388H259.062L257.162 79.3244V80.7143H259.462C258.562 81.31 258.062 82.1043 257.662 82.7992C257.162 83.4942 256.762 84.0899 256.162 84.5863V83.8913L254.062 81.9057H250.362L248.363 83.8913V85.1819H252.062V86.1747H238.564V71.6799C244.563 71.9778 253.062 72.1763 265.261 72.1763C277.56 72.1763 286.259 71.9777 292.258 71.5806V86.1747H278.56ZM247.263 83.9906L245.163 81.9057H241.463L239.464 83.8913V85.1819H247.263V83.9906ZM247.263 79.4237L245.263 77.4381H241.363L239.464 79.3244V80.7143H247.263V79.4237ZM247.263 74.8568L245.363 72.9705H241.263L239.464 74.7576V76.2468H247.263V74.8568ZM256.062 79.4237L254.162 77.5374H250.163L248.263 79.4237V80.8136H256.062V79.4237ZM256.062 74.8568L254.162 72.9705H250.163L248.263 74.7576V76.2468H256.062V74.8568ZM264.861 74.8568L263.061 72.9705H258.962L257.062 74.8568V76.2468L264.861 76.346V74.8568ZM273.66 74.7576L271.86 72.9705H267.761L265.861 74.8568V76.2468H273.66V74.7576ZM283.559 76.2468H291.358V74.7576L289.558 72.9705H285.459L283.559 74.8568V76.2468ZM283.559 80.8136H291.358V79.3244L289.458 77.4381H285.559L283.559 79.523V80.8136ZM283.559 85.2812H291.358V83.8913L289.358 82.005H285.659L283.559 84.0899V85.2812ZM274.76 76.2468H282.559V74.7576L280.659 72.9705H276.66L274.76 74.8568V76.2468ZM282.559 80.8136V79.3244L280.659 77.4381H276.76L274.76 79.4237V80.7143L282.559 80.8136Z" fill="#066AC9" fill-opacity="0.1"/>
<path d="M323.157 95.2091C323.157 95.2091 305.059 94.117 294.16 88.0609C291.96 88.0609 285.561 88.0609 277.762 88.0609V91.7343H276.762C276.562 91.7343 276.362 91.7012 276.162 91.635C275.962 91.635 275.762 91.635 275.562 91.635C273.362 91.635 272.362 90.5429 271.462 89.6494C270.763 88.8552 270.163 88.2595 269.163 88.0609C266.663 88.0609 264.163 88.0609 261.763 88.0609C260.964 88.2595 260.564 88.7559 260.064 89.3516C259.164 90.3444 258.164 91.635 255.264 91.635C255.164 91.635 254.164 91.635 253.764 91.635H252.864V88.0609C245.265 88.0609 239.066 88.0609 236.766 88.0609C227.767 93.2235 207.669 95.2091 207.669 95.2091C207.669 95.2091 222.468 96.9961 265.663 96.9961C308.559 96.9961 323.157 95.2091 323.157 95.2091Z" fill="#066AC9" fill-opacity="0.1"/>
<path d="M268.561 81.6079H262.362C257.563 81.6079 259.162 86.969 253.763 87.0683V89.6495C254.363 89.6495 254.963 89.6495 255.263 89.6495C260.062 89.6495 258.662 85.9762 262.762 85.9762H268.161C272.261 85.9762 271.861 89.6495 275.561 89.6495C275.861 89.6495 276.361 89.6495 276.86 89.6495V86.969C272.961 86.6712 273.161 81.6079 268.561 81.6079Z" fill="#066AC9" fill-opacity="0.1"/>
<path fill-rule="evenodd" clip-rule="evenodd" d="M305.556 109.803H306.256V132.141H305.656V115.264H302.056V132.24H297.657V115.264H294.057V132.24H289.657V115.264H285.958V132.24H278.459V116.753H251.561V132.24H244.862V115.264H241.163V132.24H236.863V115.264H233.163V132.24H228.764V115.264H225.164V132.24H225.064V132.042H224.164V109.704H225.064V99.2795H305.556V109.803ZM232.563 111.292L231.764 110.498H227.664L227.064 111.193V113.973H232.563V111.292ZM233.763 108.314L231.764 106.328H227.664L225.764 108.215V109.704H233.763V108.314ZM233.763 104.144L231.764 102.059H227.764L225.764 104.045V105.534H233.763V104.144ZM241.562 111.292L240.563 110.399H236.563L235.463 111.491V113.774H241.562V111.292ZM242.662 108.215L240.563 106.229H236.563L234.563 108.215V109.605H242.662V108.215ZM242.662 104.045L240.563 102.059H236.563L234.563 103.946V105.435H242.662V104.045ZM251.461 112.384L249.462 110.3H245.462L244.462 111.292V113.774H251.461V112.384ZM251.461 108.215L249.462 106.13H245.462L243.462 108.115V109.605H251.461V108.215ZM251.461 104.045L249.462 101.96H245.462L243.462 103.946V105.336H251.461V104.045ZM260.36 112.384L258.261 110.399H254.261L252.361 112.285V113.774H260.36V112.384ZM260.36 108.215L258.261 106.229H254.261L252.361 108.115V109.605H260.36V108.215ZM260.36 104.045L258.261 101.96H254.261L252.361 103.946V105.435H260.36V104.045ZM269.16 112.384L267.16 110.3H263.16L261.16 112.285V113.675H269.16V112.384ZM269.16 108.215L267.16 106.229H263.16L261.16 108.215V109.605H269.16V108.215ZM269.16 104.045L267.16 102.059H263.16L261.16 103.946V105.435H269.16V104.045ZM278.059 112.384L276.059 110.3H271.959L270.059 112.285V113.774H278.059V112.384ZM278.059 108.215L276.059 106.13H271.959L270.059 108.115V109.505H278.059V108.215ZM278.059 104.144L276.059 102.059H271.959L270.059 104.045V105.435H278.059V104.144ZM285.958 111.491L284.858 110.498H280.858L278.859 112.384V113.874H285.958V111.491ZM286.958 108.314L284.858 106.229H280.858L278.859 108.215V109.704H286.958V108.314ZM286.958 104.144L284.858 102.059H280.858L278.859 104.045V105.435H286.958V104.144ZM294.357 111.094L293.757 110.498H289.657L288.857 111.292V113.874H294.357V111.094ZM295.757 108.314L293.757 106.328H289.657L287.758 108.215V109.704H295.757V108.314ZM295.757 104.144L293.757 102.159H289.657L287.758 104.045V105.534H295.757V104.144ZM303.356 111.193L302.556 110.399H298.556L297.257 111.689V113.874H303.356V111.193ZM304.656 108.215L302.556 106.229H298.556L296.557 108.215V109.605H304.656V108.215ZM304.656 104.045L302.556 102.059H298.556L296.557 103.946V105.435H304.656V104.045Z" fill="#066AC9" fill-opacity="0.1"/>
<path d="M336.949 49.8385C336.949 51.2284 335.849 52.4197 334.449 52.4197C333.049 52.4197 331.85 51.2284 331.85 49.8385V47.3565C331.85 45.9666 333.049 44.7752 334.449 44.7752C335.849 44.7752 336.949 45.9666 336.949 47.3565V49.8385Z" fill="#066AC9" fill-opacity="0.1"/>
<path d="M335.853 56.093H333.053V50.4341H335.853V56.093Z" fill="#066AC9" fill-opacity="0.1"/>
<path d="M343.357 95.4075C342.358 94.0176 340.758 92.9255 338.658 92.1313V54.5043L341.958 54.9014L343.357 95.4075Z" fill="#066AC9" fill-opacity="0.1"/>
<path d="M330.753 53.8095C331.087 53.7433 331.52 53.6771 332.053 53.6109V51.9232C331.553 51.3275 331.353 50.6325 331.353 49.9376V47.1578C331.353 45.47 332.753 44.0801 334.453 44.0801C336.153 44.0801 337.553 45.47 337.553 47.1578V49.9376C337.553 50.6325 337.253 51.3275 336.853 51.9232V53.6109C337.319 53.6771 337.753 53.7433 338.153 53.8095L338.353 53.9088L338.053 46.7607C337.953 45.0729 336.353 43.683 334.453 43.683C332.553 43.683 330.853 45.0729 330.853 46.7607L330.553 53.9088L330.753 53.8095Z" fill="#066AC9" fill-opacity="0.1"/>
<path d="M337.755 57.185V54.5045C336.955 54.3059 335.755 54.1074 334.455 54.1074C333.155 54.1074 331.955 54.3059 331.155 54.5045V57.185C331.155 57.7807 331.655 58.2771 332.255 58.2771H336.555C337.255 58.2771 337.755 57.7807 337.755 57.185Z" fill="#066AC9" fill-opacity="0.1"/>
<path d="M337.049 63.3404C332.449 63.3404 327.95 62.5461 324.15 60.9577C320.551 59.5678 317.751 57.5822 315.851 55.2988L330.25 54.4052V57.2843C330.25 58.2771 331.049 59.0714 332.049 59.0714H336.749C337.149 59.0714 337.482 58.9721 337.749 58.7735V63.3404C337.482 63.3404 337.249 63.3404 337.049 63.3404Z" fill="#066AC9" fill-opacity="0.1"/>
<path d="M337.759 91.8337C335.86 91.238 333.76 90.9402 331.76 90.6423C327.561 89.9474 323.961 89.3517 323.961 86.7704C323.961 84.3877 324.061 80.1187 324.061 75.949C324.061 72.1763 324.061 68.7016 324.061 67.0138V66.9145L323.961 66.8152C321.561 64.5318 314.362 64.3333 311.162 64.234C307.963 60.2628 307.263 57.5822 307.263 55.8945L314.862 55.3981C316.062 57.0527 317.728 58.5089 319.861 59.7664C324.461 62.6455 330.56 64.1347 337.06 64.1347C337.26 64.1347 337.493 64.1347 337.759 64.1347V91.8337Z" fill="#066AC9" fill-opacity="0.1"/>
<path d="M342.757 54.9016L343.157 67.2123C344.456 66.6166 349.556 64.2339 357.055 64.2339C360.255 60.2627 360.955 57.5822 360.955 55.8944C360.955 55.8944 348.456 55.8944 342.757 54.9016Z" fill="#066AC9" fill-opacity="0.1"/>
<path d="M306.557 55.8945L305.657 55.7952C304.757 55.7952 304.657 54.2068 303.357 54.306L300.357 54.4053C300.157 54.4053 299.957 54.7031 299.857 55.1003L297.458 55.1996C297.058 55.1996 296.858 55.8945 296.958 56.5895C297.058 57.2844 297.358 57.7808 297.758 57.8801L302.457 58.7736C302.957 58.9722 303.657 58.6743 304.357 58.1779L307.057 58.3765C306.657 57.3837 306.557 56.4902 306.557 55.8945Z" fill="#066AC9" fill-opacity="0.1"/>
<path d="M361.747 55.8945L362.747 55.7952C363.647 55.7952 363.647 54.2068 364.947 54.306L367.946 54.4053C368.146 54.4053 368.446 54.7031 368.546 55.1003L370.846 55.1996C371.346 55.1996 371.546 55.8945 371.446 56.5895C371.246 57.2844 370.946 57.7808 370.646 57.8801L365.947 58.7736C365.447 58.9722 364.647 58.6743 364.047 58.1779L361.347 58.3765C361.647 57.3837 361.747 56.4902 361.747 55.8945Z" fill="#066AC9" fill-opacity="0.1"/>
<path d="M343.85 114.172L343.25 96.4006L342.85 95.8049C341.95 94.5142 340.451 93.5214 338.451 92.7272L337.951 92.6279L337.551 92.4294C335.651 91.8337 333.651 91.5358 331.651 91.238C329.052 90.8409 326.552 90.4438 324.952 89.451L324.052 114.172H343.85Z" fill="#066AC9" fill-opacity="0.1"/>
<path d="M347.056 118.738H321.258V115.264H347.056V118.738Z" fill="#066AC9" fill-opacity="0.1"/>
<path d="M348.752 131.446H319.655V120.228H348.752V131.446Z" fill="#066AC9" fill-opacity="0.1"/>
<path d="M46.9893 71.4813H-36.2019V75.1546C-36.2019 75.8496 -35.602 76.4452 -34.902 76.4452H45.6895C46.3894 76.4452 46.9893 75.8496 46.9893 75.1546V71.4813Z" fill="#066AC9" fill-opacity="0.1"/>
<path d="M-40.7089 69.2971H51.5813C52.2813 69.2971 52.8812 68.8007 52.8812 68.0064V65.8223L5.38622 49.3419L-42.0088 65.8223V68.0064C-42.0088 68.8007 -41.4089 69.2971 -40.7089 69.2971Z" fill="#066AC9" fill-opacity="0.1"/>
<path d="M-36.2019 117.348V119.632H46.9893V117.348C46.9893 116.653 46.3894 116.058 45.6895 116.058H-34.902C-35.602 116.058 -36.2019 116.653 -36.2019 117.348Z" fill="#066AC9" fill-opacity="0.1"/>
<path d="M53.2815 122.908C53.2815 122.213 52.6815 121.618 51.9816 121.618H-41.2086C-41.9085 121.618 -42.4084 122.213 -42.4084 122.908V125.192H53.2815V122.908Z" fill="#066AC9" fill-opacity="0.1"/>
<path d="M58.2851 127.574H-47.4037C-48.1037 127.574 -48.7036 128.17 -48.7036 128.865V131.148H59.585V128.865C59.585 128.17 58.985 127.574 58.2851 127.574Z" fill="#066AC9" fill-opacity="0.1"/>
<path d="M-3.81348 113.278V113.576H4.18568V113.278C4.18568 112.087 3.38575 111.094 2.28587 110.895V81.9056C3.38575 81.6078 4.18568 80.615 4.18568 79.5229V78.3316H-3.81348V79.5229C-3.81348 80.615 -3.01357 81.6078 -1.91368 81.9056V110.895C-3.01357 111.094 -3.81348 112.087 -3.81348 113.278Z" fill="#066AC9" fill-opacity="0.1"/>
<path d="M6.48755 113.278V113.576H14.4867V113.278C14.4867 112.087 13.6868 111.094 12.5869 110.895V81.9056C13.6868 81.6078 14.4867 80.615 14.4867 79.5229V78.3316H6.48755V79.5229C6.48755 80.615 7.28747 81.6078 8.38736 81.9056V110.895C7.28747 111.094 6.48755 112.087 6.48755 113.278Z" fill="#066AC9" fill-opacity="0.1"/>
<path d="M16.7886 113.278V113.576H24.7877V113.278C24.7877 112.087 23.9878 111.094 22.8879 110.895V81.9056C23.9878 81.6078 24.7877 80.615 24.7877 79.5229V78.3316H16.7886V79.5229C16.7886 80.615 17.5885 81.6078 18.6884 81.9056V110.895C17.5885 111.094 16.7886 112.087 16.7886 113.278Z" fill="#066AC9" fill-opacity="0.1"/>
<path d="M27.0813 113.278V113.576H35.0805V113.278C35.0805 112.087 34.2805 111.094 33.2806 110.895V81.9056C34.2805 81.6078 35.0805 80.615 35.0805 79.5229V78.3316H27.0813V79.5229C27.0813 80.615 27.8812 81.6078 28.9811 81.9056V110.895C27.8812 111.094 27.0813 112.087 27.0813 113.278Z" fill="#066AC9" fill-opacity="0.1"/>
<path d="M37.3823 113.278V113.576H45.4815V113.278C45.4815 112.087 44.5816 111.094 43.5817 110.895V81.9056C44.5816 81.6078 45.4815 80.615 45.4815 79.5229V78.3316H37.3823V79.5229C37.3823 80.615 38.1822 81.6078 39.2821 81.9056V110.895C38.1822 111.094 37.3823 112.087 37.3823 113.278Z" fill="#066AC9" fill-opacity="0.1"/>
<path fill-rule="evenodd" clip-rule="evenodd" d="M227.564 132.935H78.4796L25.7852 133.035C26.7184 132.571 27.6183 132.075 28.4849 131.546H77.6797L91.7782 112.484L74.48 63.0426L72.8802 60.8585L42.2834 102.556C42.1501 101.894 42.0501 101.232 41.9834 100.57L72.8802 58.4758L102.277 98.1876L152.172 30.5782L227.564 132.935ZM79.5795 131.446H187.168L172.37 88.8553H140.873V87.8625H148.372V80.3173H133.174V79.2252H141.273V71.68H133.174V70.6872H162.571V63.0426H148.072V62.0498H163.071L153.772 35.1451L152.172 32.9609L104.677 97.3934L143.173 97.4927C143.173 97.8236 143.206 98.1545 143.273 98.4855H119.375V106.031H136.373C136.373 106.362 136.407 106.693 136.473 107.023H126.874V114.668H145.773V115.661H133.974V123.206H142.673V124.199H84.9789L79.5795 131.446ZM166.37 71.68H156.171V79.2252H169.07L166.37 71.68ZM148.972 87.8625H162.471V80.3173H148.972V87.8625ZM155.371 79.2252V71.68H141.873V79.2252H155.371ZM163.271 70.5879H165.97L163.371 63.0426H163.271V70.5879ZM98.1775 105.931H104.377V98.3862H103.777L98.1775 105.931ZM126.075 106.924H112.476V114.569H126.075V106.924ZM119.575 115.462V123.107H133.074V115.462H119.575ZM105.377 115.462V123.107H118.875V115.462H105.377ZM118.575 98.2869H105.077V105.832H118.575V98.2869ZM98.2775 106.924V114.469H111.776V106.924H98.2775ZM91.8782 114.469H97.5776V106.924H97.4776L91.8782 114.469ZM91.1783 123.107H104.677V115.462H91.1783V123.107ZM85.5789 123.107H90.3784V116.554L85.5789 123.107ZM169.37 80.1187H163.371V87.664H172.07L169.37 80.1187Z" fill="#066AC9" fill-opacity="0.1"/>
</svg>
