<svg width="30" height="30" viewBox="0 0 30 30" fill="none" xmlns="http://www.w3.org/2000/svg">
<rect width="30" height="30" rx="15" fill="#418FDA"/>
<path d="M14.3667 16.9667L13.1333 18.2C12.8733 18.46 12.46 18.46 12.1933 18.2067C12.12 18.1333 12.0467 18.0667 11.9733 17.9933C11.2867 17.3 10.6667 16.5733 10.1133 15.8133C9.56667 15.0533 9.12667 14.2933 8.80667 13.54C8.49333 12.78 8.33333 12.0533 8.33333 11.36C8.33333 10.9067 8.41333 10.4733 8.57333 10.0733C8.73333 9.66667 8.98667 9.29334 9.34 8.96C9.76667 8.54 10.2333 8.33334 10.7267 8.33334C10.9133 8.33334 11.1 8.37334 11.2667 8.45334C11.44 8.53334 11.5933 8.65334 11.7133 8.82667L13.26 11.0067C13.38 11.1733 13.4667 11.3267 13.5267 11.4733C13.5867 11.6133 13.62 11.7533 13.62 11.88C13.62 12.04 13.5733 12.2 13.48 12.3533C13.3933 12.5067 13.2667 12.6667 13.1067 12.8267L12.6 13.3533C12.5267 13.4267 12.4933 13.5133 12.4933 13.62C12.4933 13.6733 12.5 13.72 12.5133 13.7733C12.5333 13.8267 12.5533 13.8667 12.5667 13.9067C12.6867 14.1267 12.8933 14.4133 13.1867 14.76C13.4867 15.1067 13.8067 15.46 14.1533 15.8133C14.22 15.88 14.2933 15.9467 14.36 16.0133C14.6267 16.2733 14.6333 16.7 14.3667 16.9667Z" fill="white"/>
<path d="M21.6467 19.22C21.6467 19.4067 21.6133 19.6 21.5467 19.7867C21.5267 19.84 21.5067 19.8933 21.48 19.9467C21.3667 20.1867 21.22 20.4133 21.0267 20.6267C20.7 20.9867 20.34 21.2467 19.9333 21.4133C19.9267 21.4133 19.92 21.42 19.9133 21.42C19.52 21.58 19.0933 21.6667 18.6333 21.6667C17.9533 21.6667 17.2267 21.5067 16.46 21.18C15.6933 20.8533 14.9267 20.4133 14.1667 19.86C13.9067 19.6667 13.6467 19.4733 13.4 19.2667L15.58 17.0867C15.7667 17.2267 15.9333 17.3333 16.0733 17.4067C16.1067 17.42 16.1467 17.44 16.1933 17.46C16.2467 17.48 16.3 17.4867 16.36 17.4867C16.4733 17.4867 16.56 17.4467 16.6333 17.3733L17.14 16.8733C17.3067 16.7067 17.4667 16.58 17.62 16.5C17.7733 16.4067 17.9267 16.36 18.0933 16.36C18.22 16.36 18.3533 16.3867 18.5 16.4467C18.6467 16.5067 18.8 16.5933 18.9667 16.7067L21.1733 18.2733C21.3467 18.3933 21.4667 18.5333 21.54 18.7C21.6067 18.8667 21.6467 19.0333 21.6467 19.22Z" fill="white"/>
</svg>
