<svg width="22" height="22" viewBox="0 0 22 22" fill="none" xmlns="http://www.w3.org/2000/svg">
<path opacity="0.4" d="M16.4978 6.56341C16.4428 6.55424 16.3786 6.55424 16.3236 6.56341C15.0586 6.51757 14.0503 5.48174 14.0503 4.19841C14.0503 2.88757 15.1045 1.8334 16.4153 1.8334C17.7261 1.8334 18.7803 2.89674 18.7803 4.19841C18.7711 5.48174 17.7628 6.51757 16.4978 6.56341Z" stroke="#0D2862" stroke-width="1.5" stroke-linecap="round" stroke-linejoin="round"/>
<path opacity="0.4" d="M15.5536 13.2367C16.8095 13.4476 18.1936 13.2276 19.1653 12.5767C20.4578 11.7151 20.4578 10.3034 19.1653 9.44173C18.1845 8.7909 16.782 8.57089 15.5261 8.79089" stroke="#0D2862" stroke-width="1.5" stroke-linecap="round" stroke-linejoin="round"/>
<path opacity="0.4" d="M5.47025 6.56341C5.52525 6.55424 5.58941 6.55424 5.64441 6.56341C6.90941 6.51757 7.91774 5.48174 7.91774 4.19841C7.91774 2.88757 6.86358 1.8334 5.55275 1.8334C4.24191 1.8334 3.18774 2.89674 3.18774 4.19841C3.19691 5.48174 4.20525 6.51757 5.47025 6.56341Z" stroke="#0D2862" stroke-width="1.5" stroke-linecap="round" stroke-linejoin="round"/>
<path opacity="0.4" d="M6.41429 13.2367C5.15846 13.4476 3.77429 13.2276 2.80263 12.5767C1.51013 11.7151 1.51013 10.3034 2.80263 9.44173C3.78346 8.7909 5.18596 8.57089 6.44179 8.79089" stroke="#0D2862" stroke-width="1.5" stroke-linecap="round" stroke-linejoin="round"/>
<path d="M11 13.4109C10.945 13.4017 10.8808 13.4017 10.8258 13.4109C9.56082 13.3651 8.55249 12.3292 8.55249 11.0459C8.55249 9.73508 9.60666 8.68091 10.9175 8.68091C12.2283 8.68091 13.2825 9.74424 13.2825 11.0459C13.2733 12.3292 12.265 13.3742 11 13.4109Z" stroke="#0D2862" stroke-width="1.5" stroke-linecap="round" stroke-linejoin="round"/>
<path d="M8.33241 16.2984C7.03991 17.1601 7.03991 18.5718 8.33241 19.4334C9.79908 20.4143 12.2007 20.4143 13.6674 19.4334C14.9599 18.5718 14.9599 17.1601 13.6674 16.2984C12.2099 15.3268 9.79908 15.3268 8.33241 16.2984Z" stroke="#0D2862" stroke-width="1.5" stroke-linecap="round" stroke-linejoin="round"/>
</svg>
