<svg width="22" height="22" viewBox="0 0 22 22" fill="none" xmlns="http://www.w3.org/2000/svg">
<path d="M10.9999 20.1667C16.0625 20.1667 20.1666 16.0627 20.1666 11C20.1666 5.93743 16.0625 1.83338 10.9999 1.83338C5.93731 1.83338 1.83325 5.93743 1.83325 11C1.83325 16.0627 5.93731 20.1667 10.9999 20.1667Z" stroke="#0D2862" stroke-width="1.5" stroke-linecap="round" stroke-linejoin="round"/>
<g opacity="0.4">
<path d="M7.33289 2.75005H8.24956C6.46206 8.10338 6.46206 13.8967 8.24956 19.25H7.33289" stroke="#0D2862" stroke-width="1.5" stroke-linecap="round" stroke-linejoin="round"/>
<path d="M13.75 2.75005C15.5375 8.10338 15.5375 13.8967 13.75 19.25" stroke="#0D2862" stroke-width="1.5" stroke-linecap="round" stroke-linejoin="round"/>
<path d="M2.75 14.6667V13.75C8.10333 15.5375 13.8967 15.5375 19.25 13.75V14.6667" stroke="#0D2862" stroke-width="1.5" stroke-linecap="round" stroke-linejoin="round"/>
<path d="M2.75 8.25014C8.10333 6.46264 13.8967 6.46264 19.25 8.25014" stroke="#0D2862" stroke-width="1.5" stroke-linecap="round" stroke-linejoin="round"/>
</g>
</svg>
