<svg width="60" height="60" viewBox="0 0 60 60" fill="none" xmlns="http://www.w3.org/2000/svg">
<rect x="0.5" y="0.5" width="59" height="59" rx="29.5" fill="#FFE5C1"/>
<rect x="0.5" y="0.5" width="59" height="59" rx="29.5" stroke="#FBC376"/>
<path d="M28.0495 20.53L22.0295 24.46C20.0995 25.72 20.0995 28.54 22.0295 29.8L28.0495 33.73C29.1295 34.44 30.9095 34.44 31.9895 33.73L37.9795 29.8C39.8995 28.54 39.8995 25.73 37.9795 24.47L31.9895 20.54C30.9095 19.82 29.1295 19.82 28.0495 20.53Z" stroke="#374151" stroke-width="1.5" stroke-linecap="round" stroke-linejoin="round"/>
<path d="M23.6291 31.0801L23.6191 35.7701C23.6191 37.0401 24.5991 38.4001 25.7991 38.8001L28.9891 39.8601C29.5391 40.0401 30.4491 40.0401 31.0091 39.8601L34.1991 38.8001C35.3991 38.4001 36.3791 37.0401 36.3791 35.7701V31.1301" stroke="#374151" stroke-width="1.5" stroke-linecap="round" stroke-linejoin="round"/>
<path d="M39.4004 33V27" stroke="#374151" stroke-width="1.5" stroke-linecap="round" stroke-linejoin="round"/>
</svg>
