<svg width="22" height="22" viewBox="0 0 22 22" fill="none" xmlns="http://www.w3.org/2000/svg">
<path d="M20.1025 6.19675L17.0133 18.5993C16.7933 19.5251 15.9683 20.1667 15.015 20.1667H2.96996C1.58579 20.1667 0.595804 18.81 1.0083 17.4809L4.86746 5.08762C5.1333 4.22595 5.93081 3.63004 6.82914 3.63004H18.1041C18.975 3.63004 19.6991 4.16171 20.0016 4.89504C20.1758 5.28921 20.2125 5.73841 20.1025 6.19675Z" stroke="#0D2862" stroke-width="1.5" stroke-miterlimit="10"/>
<path opacity="0.4" d="M14.6667 20.1667H19.0484C20.2309 20.1667 21.1567 19.1676 21.0742 17.9851L20.1667 5.50006" stroke="#0D2862" stroke-width="1.5" stroke-miterlimit="10" stroke-linecap="round" stroke-linejoin="round"/>
<path d="M8.87329 5.84841L9.82663 1.88846" stroke="#0D2862" stroke-width="1.5" stroke-miterlimit="10" stroke-linecap="round" stroke-linejoin="round"/>
<path d="M15.0149 5.85757L15.8766 1.87927" stroke="#0D2862" stroke-width="1.5" stroke-miterlimit="10" stroke-linecap="round" stroke-linejoin="round"/>
<path opacity="0.4" d="M7.05835 11.0001H14.3917" stroke="#0D2862" stroke-width="1.5" stroke-miterlimit="10" stroke-linecap="round" stroke-linejoin="round"/>
<path opacity="0.4" d="M6.1416 14.6667H13.4749" stroke="#0D2862" stroke-width="1.5" stroke-miterlimit="10" stroke-linecap="round" stroke-linejoin="round"/>
</svg>
