<svg width="43" height="43" viewBox="0 0 43 43" fill="none" xmlns="http://www.w3.org/2000/svg">
<circle cx="21.5" cy="21.5" r="21" fill="#FBF1E3" stroke="#FFB023"/>
<g clip-path="url(#clip0_328_639)">
<path d="M24.1454 23.2583C23.8711 23.2583 23.6482 23.0363 23.6475 22.7617C23.6466 22.4867 23.8689 22.263 24.144 22.2622C25.395 22.2583 26.5853 21.5029 27.4954 20.1351C28.3689 18.8223 28.8822 17.1055 28.9604 15.2563H26.7666C26.4915 15.2563 26.2686 15.0334 26.2686 14.7583C26.2686 14.4832 26.4915 14.2603 26.7666 14.2603H29.4689C29.744 14.2603 29.967 14.4832 29.967 14.7583C29.967 16.9899 29.3837 19.0953 28.3248 20.687C27.2247 22.3402 25.7411 23.2534 24.1471 23.2583C24.1465 23.2583 24.146 23.2583 24.1454 23.2583Z" fill="#FFB023"/>
<path d="M18.7884 23.2583C18.7877 23.2583 18.7873 23.2583 18.7868 23.2583C17.1928 23.2534 15.709 22.3402 14.6091 20.687C13.5501 19.0953 12.9668 16.9899 12.9668 14.7583C12.9668 14.4832 13.1898 14.2603 13.4648 14.2603H16.1671C16.4422 14.2603 16.6652 14.4832 16.6652 14.7583C16.6652 15.0334 16.4422 15.2563 16.1671 15.2563H13.9734C14.0516 17.1055 14.5648 18.8223 15.4384 20.1351C16.3485 21.5029 17.5387 22.2583 18.7898 22.2622C19.0649 22.263 19.2872 22.4867 19.2863 22.7617C19.2855 23.0363 19.0627 23.2582 18.7884 23.2583Z" fill="#FFB023"/>
<path d="M26.8012 13.0332H16.1318C15.8569 13.0332 15.6338 13.2562 15.6338 13.5313C15.6338 16.4569 16.2075 19.2153 17.2489 21.2983C17.9162 22.6328 18.7323 23.6015 19.6348 24.1561V26.8678C19.6348 27.1428 19.8578 27.3658 20.1328 27.3658H22.8002C23.0753 27.3658 23.2983 27.1428 23.2983 26.8678V24.1561C24.2007 23.6017 25.0169 22.6328 25.6841 21.2983C26.7256 19.2153 27.2992 16.4569 27.2992 13.5313C27.2992 13.2562 27.0763 13.0332 26.8012 13.0332Z" fill="#FFB023"/>
<path d="M24.1341 26.3696H18.7995C17.7896 26.3696 16.9678 27.1914 16.9678 28.2014V29.5351C16.9678 29.8101 17.1907 30.033 17.4658 30.033H25.4678C25.7429 30.033 25.9658 29.8101 25.9658 29.5351V28.2014C25.9658 27.1914 25.1442 26.3696 24.1341 26.3696Z" fill="#FF8E1D"/>
<path d="M26.0015 30.0331H16.9326C16.6577 30.0331 16.4346 29.8101 16.4346 29.5352C16.4346 29.2601 16.6577 29.0371 16.9326 29.0371H26.0015C26.2766 29.0371 26.4995 29.2601 26.4995 29.5352C26.4995 29.8101 26.2766 30.0331 26.0015 30.0331Z" fill="#FF8E1D"/>
</g>
<defs>
<clipPath id="clip0_328_639">
<rect width="17" height="17" fill="white" transform="translate(13 13)"/>
</clipPath>
</defs>
</svg>
