    <svg width="107" height="32" viewBox="0 0 107 32" fill="none" xmlns="http://www.w3.org/2000/svg">
<path d="M8.75854 16.9644H21.6365V17.3793C21.6365 22.9934 16.7097 27.4113 11.1975 27.4113C5.53906 27.4113 0.587891 23.0666 0.587891 17.1352C0.587891 11.326 5.51467 6.85916 11.0756 6.85916C16.0268 6.85916 19.6365 10.2276 20.6365 13.0346H16.2707C15.417 11.7165 13.6122 10.252 11.0024 10.252C6.56344 10.2764 4.24639 14.0842 4.24639 17.1597C4.24639 20.1619 6.51466 23.9941 11.1975 23.9941C13.6122 23.9941 15.8804 22.6516 17.0268 20.3572H8.75854V16.9644Z" fill="#055AAB"/>
<path d="M56.9787 20.528C56.9787 18.3068 57.8811 16.3297 59.3689 14.914V6.76146C59.3689 6.76146 56.7592 6.93232 56.7348 10.0078C56.686 13.0589 56.7348 15.4998 56.7348 15.4998V15.5242C55.4665 14.2794 53.7348 13.4983 51.7836 13.4983C47.9056 13.4983 44.7593 16.647 44.7593 20.528C44.7593 24.409 47.9056 27.5577 51.7836 27.5577C53.7348 27.5577 55.5153 26.7522 56.8079 25.4586C56.9787 25.9467 57.5153 26.8743 59.3933 26.8743V26.142C57.9055 24.7263 56.9787 22.7004 56.9787 20.528ZM51.808 24.2625C49.7348 24.2625 48.0519 22.5783 48.0519 20.5036C48.0519 18.4288 49.7348 16.7446 51.808 16.7446C53.8811 16.7446 55.564 18.4288 55.564 20.5036C55.5397 22.6027 53.8567 24.2625 51.808 24.2625Z" fill="#096DBF"/>
<path d="M69.7548 9.98341C69.706 13.0345 69.7548 15.4754 69.7548 15.4754V15.4998C68.4865 14.2549 66.7548 13.4739 64.8036 13.4739C60.9256 13.4739 57.7793 16.6226 57.7793 20.5036C57.7793 24.3846 60.9256 27.5333 64.8036 27.5333C66.7548 27.5333 68.5353 26.7278 69.828 25.4342C69.9987 25.9223 70.5353 26.8499 72.4133 26.8499V6.76146C72.3889 6.76146 69.8036 6.93232 69.7548 9.98341ZM64.8036 24.2625C62.7305 24.2625 61.0476 22.5783 61.0476 20.5036C61.0476 18.4288 62.7305 16.7446 64.8036 16.7446C66.8768 16.7446 68.5597 18.4288 68.5597 20.5036C68.5597 22.6027 66.8768 24.2625 64.8036 24.2625Z" fill="url(#paint0_linear_2286_13115)"/>
<path d="M24.0488 14.4989H26.7805V15.5973H26.8293C27.3903 14.7918 27.9512 14.0596 29.4878 14.0596H29.7317V16.9642C27.0488 17.0862 27.0488 19.2098 27.0488 19.9665V26.9474H24.0488V14.4989Z" fill="#0762B3"/>
<path d="M43.5369 26.9474H40.8052V25.3852C39.8784 26.508 38.0247 27.3135 36.4638 27.3135C33.2687 27.3135 30.415 24.7506 30.415 20.6011C30.415 16.7934 33.1955 14.0352 36.6345 14.0352C39.1711 14.0352 40.6832 15.8658 40.7564 16.0123H40.8052V14.4257H43.5369V26.9474ZM37.0735 16.8178C34.6345 16.8178 33.3662 18.9169 33.3662 20.7964C33.3662 22.8956 34.9516 24.6286 37.0735 24.6286C39.1223 24.6286 40.7076 23.0176 40.7076 20.6988C40.7076 18.1114 38.854 16.8178 37.0735 16.8178Z" fill="#0867B9"/>
<path d="M75.2173 10.3735H78.2173V13.1073H75.2173V10.3735ZM75.2173 14.4986H78.2173V26.9471H75.2173V14.4986Z" fill="#0B7ACB"/>
<path d="M80.6093 14.4989H83.3654V15.5729C83.8776 15.0847 84.902 14.0596 86.7556 14.0596C87.8288 14.0596 89.4629 14.5477 90.4873 15.7926C91.6336 17.1595 91.6336 19.2342 91.6336 20.1862V26.923H88.6336V20.7964C88.6336 19.7712 88.6336 16.7933 86.1215 16.7933C85.5849 16.7933 84.6093 17.0618 84.0971 17.8917C83.5605 18.6484 83.5605 19.9421 83.5605 20.9916V26.923H80.5605L80.6093 14.4989Z" fill="#0D7FD1"/>
<path d="M106.78 14.4989V24.653C106.78 30.6331 102.366 32 100 32C97.439 32 94.8293 30.6575 93.7561 27.8749H97.1463C98.317 29.2662 99.756 29.2662 100.195 29.2662C101.878 29.2662 103.854 28.0946 104 25.3852L103.951 25.3364C103.536 25.8978 102.39 27.3135 99.878 27.3135C96.8536 27.3135 93.5122 24.7262 93.5122 20.5767C93.5122 16.6713 96.6829 14.0596 99.8536 14.0596C102.415 14.0596 103.488 15.5241 103.829 15.9878H103.878V14.4745L106.78 14.4989ZM100.171 16.8177C98.3658 16.8177 96.5366 18.2823 96.5366 20.6255C96.5366 23.164 98.439 24.6285 100.244 24.6285C102.049 24.6285 103.805 23.0908 103.805 20.6011C103.805 18.8437 102.366 16.8177 100.171 16.8177Z" fill="#0E85D7"/>
<path d="M2.65873 6.71241C2.65873 6.71241 6.90259 1.26926 12.9513 4.05185L14.9757 2.07474L6.46357 0L0.219727 6.71241H2.65873Z" fill="#055AAB"/>
<path d="M4.41649 8.15279L3.9043 6.54182C3.9043 6.54182 5.73355 3.88126 11.7579 4.14976L12.5871 6.15128C12.5871 6.15128 8.46523 5.44342 4.41649 8.15279Z" fill="#055AAB"/>
<path d="M1.80455 10.5688C2.15478 10.5688 2.43869 10.2846 2.43869 9.93413C2.43869 9.58363 2.15478 9.2995 1.80455 9.2995C1.45432 9.2995 1.17041 9.58363 1.17041 9.93413C1.17041 10.2846 1.45432 10.5688 1.80455 10.5688Z" fill="#055AAB"/>
<path d="M1.92768 6.44394H1.68359V9.86117H1.92768V6.44394Z" fill="#055AAB"/>
<defs>
<linearGradient id="paint0_linear_2286_13115" x1="72.4133" y1="17.1474" x2="57.7793" y2="17.1474" gradientUnits="userSpaceOnUse">
<stop stop-color="#0E86D8"/>
<stop offset="1" stop-color="#055AAB"/>
</linearGradient>
</defs>
</svg>
