<svg width="22" height="22" viewBox="0 0 22 22" fill="none" xmlns="http://www.w3.org/2000/svg">
<path d="M20.1667 7.5809V3.87757C20.1667 2.42007 19.58 1.8334 18.1225 1.8334H14.4192C12.9617 1.8334 12.375 2.42007 12.375 3.87757V7.5809C12.375 9.0384 12.9617 9.62507 14.4192 9.62507H18.1225C19.58 9.62507 20.1667 9.0384 20.1667 7.5809Z" stroke="#0D2862" stroke-width="1.5" stroke-linecap="round" stroke-linejoin="round"/>
<path d="M9.62492 7.81007V3.6484C9.62492 2.3559 9.03825 1.8334 7.58075 1.8334H3.87742C2.41992 1.8334 1.83325 2.3559 1.83325 3.6484V7.8009C1.83325 9.10257 2.41992 9.6159 3.87742 9.6159H7.58075C9.03825 9.62507 9.62492 9.10257 9.62492 7.81007Z" stroke="#0D2862" stroke-width="1.5" stroke-linecap="round" stroke-linejoin="round"/>
<path d="M9.62492 18.1226V14.4192C9.62492 12.9617 9.03825 12.3751 7.58075 12.3751H3.87742C2.41992 12.3751 1.83325 12.9617 1.83325 14.4192V18.1226C1.83325 19.5801 2.41992 20.1667 3.87742 20.1667H7.58075C9.03825 20.1667 9.62492 19.5801 9.62492 18.1226Z" stroke="#0D2862" stroke-width="1.5" stroke-linecap="round" stroke-linejoin="round"/>
<path opacity="0.4" d="M13.75 14.2084H19.25" stroke="#0D2862" stroke-width="1.5" stroke-linecap="round"/>
<path opacity="0.4" d="M13.75 17.8751H19.25" stroke="#0D2862" stroke-width="1.5" stroke-linecap="round"/>
</svg>
