<svg width="22" height="22" viewBox="0 0 22 22" fill="none" xmlns="http://www.w3.org/2000/svg">
<path d="M15.9316 9.51506V12.4759C15.9316 14.9417 14.9416 15.9317 12.4757 15.9317H9.51492C7.04908 15.9317 6.05908 14.9417 6.05908 12.4759V9.51506C6.05908 7.04922 7.04908 6.0592 9.51492 6.0592H12.4757C14.9507 6.06837 15.9316 7.04922 15.9316 9.51506Z" stroke="#0D2862" stroke-width="1.5" stroke-linecap="round" stroke-linejoin="round"/>
<path opacity="0.4" d="M20.1667 5.28923V8.25007C20.1667 10.7159 19.1767 11.7059 16.7109 11.7059H15.9317V9.52425C15.9317 7.05842 14.9417 6.0684 12.4759 6.0684H10.2942V5.28923C10.2942 2.82339 11.2842 1.8334 13.75 1.8334H16.7109C19.1767 1.8334 20.1667 2.82339 20.1667 5.28923Z" stroke="#0D2862" stroke-width="1.5" stroke-linecap="round" stroke-linejoin="round"/>
<path opacity="0.4" d="M1.83325 16.7109V13.7501C1.83325 11.2842 2.82325 10.2943 5.28909 10.2943H6.06825V12.4759C6.06825 14.9417 7.05825 15.9317 9.52408 15.9317H11.7058V16.7109C11.7058 19.1768 10.7158 20.1667 8.24992 20.1667H5.28909C2.82325 20.1667 1.83325 19.1768 1.83325 16.7109Z" stroke="#0D2862" stroke-width="1.5" stroke-linecap="round" stroke-linejoin="round"/>
</svg>
