<svg width="38" height="38" viewBox="0 0 38 38" fill="none" xmlns="http://www.w3.org/2000/svg">
<rect width="38" height="38.0015" rx="10" fill="#DBEAFE"/>
<path d="M19.1 9.90113V9.9H19C13.9783 9.9 9.9 13.9783 9.9 19.0006C9.9 24.0229 13.9783 28.1012 19 28.1012C24.0216 28.1012 28.1006 24.0229 28.1 19.0006C28.1 14.0123 24.0757 9.95485 19.1 9.90113ZM19 10.7672C23.5511 10.7672 27.234 14.4495 27.234 19.0006C27.234 23.5517 23.5511 27.2346 19 27.2346C14.4489 27.2346 10.766 23.5517 10.766 19.0006C10.766 14.4495 14.4489 10.7672 19 10.7672Z" fill="#1A51AA" stroke="#1A51AA" stroke-width="0.2"/>
<path d="M18.666 10.0671H18.566V10.1671V27.6468V27.7468H18.666H19.3326H19.4326V27.6468V10.1671V10.0671H19.3326H18.666Z" fill="#1A51AA" stroke="#1A51AA" stroke-width="0.2"/>
<path d="M10.375 18.5676V18.6676H10.2756V19.3342V19.4342H10.3756H27.7096H27.8096V19.3342V18.6676V18.5676H27.7096H10.4756H10.3756H10.375ZM11.5845 13.9004H11.4845V14.0004V14.6682V14.7682H11.5845H26.3338H26.4338V14.6682V14.0004V13.9004H26.3338H11.5845ZM11.7295 23.2343H11.6295V23.3343V24.0015V24.1015H11.7295H26.3174H26.4174V24.0015V23.3343V23.2343H26.3174H11.7295Z" fill="#1A51AA" stroke="#1A51AA" stroke-width="0.2"/>
<path d="M18.0443 10.1054L18.1771 9.99317H17.9038H17.9032H17.6881L17.7629 10.082C15.4075 12.1134 13.9 15.3585 13.9 19.0012C13.9 22.6941 15.4506 25.9773 17.8614 28.0028L17.938 28.0672L18.0023 27.9905L18.4307 27.4799L18.4949 27.4034L18.4184 27.3391C16.2205 25.4925 14.7678 22.4529 14.7678 19.0012C14.7678 15.5597 16.2108 12.5273 18.3973 10.679L18.4736 10.6145L18.4092 10.5381L18.0443 10.1054ZM20.1345 9.99398V9.75911L19.9575 9.97269L19.5328 10.4852L19.4691 10.5621L19.546 10.6259C21.7678 12.4687 23.2392 15.526 23.2394 18.9998C23.1969 21.6422 21.7982 24.9723 19.4968 27.4197L19.4283 27.4925L19.5011 27.561L19.9861 28.0179L20.0589 28.0866L20.1275 28.0137C22.5729 25.415 24.061 21.9293 24.1059 19.007H24.106V19.0055C24.106 15.307 22.5519 12.0185 20.1345 9.99398Z" fill="#1A51AA" stroke="#1A51AA" stroke-width="0.2"/>
</svg>
