<svg width="60" height="60" viewBox="0 0 60 60" fill="none" xmlns="http://www.w3.org/2000/svg">
<rect x="0.5" y="0.5" width="58.5556" height="58.5556" rx="29.2778" fill="#CEFFDF"/>
<rect x="0.5" y="0.5" width="58.5556" height="58.5556" rx="29.2778" stroke="#75FFA4"/>
<path d="M19.8474 21.8714C20.6474 18.4114 25.8574 18.4114 26.6474 21.8714C27.1174 23.9014 25.8274 25.6214 24.7074 26.6914C23.8874 27.4714 22.5974 27.4614 21.7774 26.6914C20.6674 25.6214 19.3774 23.9014 19.8474 21.8714Z" stroke="#374151" stroke-width="1.5"/>
<path d="M32.8473 33.8714C33.6473 30.4114 38.8873 30.4114 39.6873 33.8714C40.1573 35.9014 38.8673 37.6214 37.7373 38.6914C36.9173 39.4714 35.6173 39.4614 34.7973 38.6914C33.6673 37.6214 32.3773 35.9014 32.8473 33.8714Z" stroke="#374151" stroke-width="1.5"/>
<path d="M29.777 22.2715H32.457C34.307 22.2715 35.167 24.5615 33.777 25.7815L25.787 32.7715C24.397 33.9815 25.257 36.2715 27.097 36.2715H29.777" stroke="#374151" stroke-width="1.5" stroke-linecap="round" stroke-linejoin="round"/>
<path d="M23.2631 22.7715H23.2746" stroke="#374151" stroke-width="2" stroke-linecap="round" stroke-linejoin="round"/>
<path d="M36.2631 34.7715H36.2746" stroke="#374151" stroke-width="2" stroke-linecap="round" stroke-linejoin="round"/>
</svg>
